<svg width="48" height="38" viewBox="0 0 48 38" fill="none" xmlns="http://www.w3.org/2000/svg">
<g clip-path="url(#clip0_124_221)">
<path d="M11.6299 0L21.2864 8.27707C21.8597 8.76846 22.1902 9.48956 22.1902 10.249V16.4871L12.5336 8.21001C11.9603 7.71862 11.6299 6.9975 11.6299 6.23799V0Z" fill="#FF5252"/>
<path d="M11.6299 37.5L21.2864 29.2229C21.8597 28.7316 22.1902 28.0104 22.1902 27.251V21.0129L12.5336 29.29C11.9603 29.7814 11.6299 30.5025 11.6299 31.262V37.5Z" fill="#FF5252"/>
<path d="M0.109375 8.72845L9.63465 16.8473C10.0965 17.241 10.6812 17.4569 11.2855 17.4569H18.9672L9.46543 9.33988C9.00329 8.94508 8.41762 8.72845 7.81236 8.72845H0.109375Z" fill="#FF5252"/>
<path d="M0.109375 28.7716L9.57607 20.6573C10.0387 20.2608 10.6256 20.0431 11.2324 20.0431H18.9901L9.46487 28.1619C9.00304 28.5556 8.41824 28.7716 7.81396 28.7716H0.109375Z" fill="#FF5252"/>
<path d="M35.3108 0L25.6542 8.27707C25.0809 8.76846 24.7505 9.48956 24.7505 10.249V16.4871L34.407 8.21001C34.9803 7.71862 35.3108 6.9975 35.3108 6.23799V0Z" fill="#FF5252"/>
<path d="M35.3108 37.5L25.6542 29.2229C25.0809 28.7316 24.7505 28.0104 24.7505 27.251V21.0129L34.407 29.29C34.9803 29.7814 35.3108 30.5025 35.3108 31.262V37.5Z" fill="#FF5252"/>
<path d="M46.8316 8.72845L37.3063 16.8473C36.8445 17.241 36.2597 17.4569 35.6554 17.4569H27.9736L37.4755 9.33988C37.9376 8.94508 38.5233 8.72845 39.1286 8.72845H46.8316Z" fill="#FF5252"/>
<path d="M46.8314 28.7716L37.3648 20.6573C36.9021 20.2608 36.3151 20.0431 35.7084 20.0431H27.9507L37.4759 28.1619C37.9378 28.5556 38.5225 28.7716 39.1268 28.7716H46.8314Z" fill="#FF5252"/>
</g>
<defs>
<clipPath id="clip0_124_221">
<rect width="47.6562" height="37.3774" fill="white"/>
</clipPath>
</defs>
</svg>
